<?xml version="1.0" encoding="utf-8"?>
<!-- Generator: Adobe Illustrator 19.0.0, SVG Export Plug-In . SVG Version: 6.00 Build 0)  -->
<svg version="1.1" xmlns="http://www.w3.org/2000/svg" xmlns:xlink="http://www.w3.org/1999/xlink" x="0px" y="0px"
	 viewBox="-49 141 512 512" style="enable-background:new -49 141 512 512;" xml:space="preserve">
<style type="text/css">
	.st0{fill:#4B3A25;}
</style>
<g id="Capa_1">
	<path class="st0" d="M426,548.2l-89.8-89.8c-0.1,0.1-0.2,0.1-0.3,0.2c0.1,0.4,0.2,0.9,0.2,1.4c-0.1,4.1-1.5,8-3.4,11.6l85,85
		c7.1,7.1,7.1,18.7,0,25.8l-2.8,2.8c-7.1,7.1-18.7,7.1-25.8,0l-85.8-85.8c-3.4,2.3-7,4.3-10.6,6.2l88,88c5.9,5.9,13.6,8.8,21.3,8.8
		s15.4-2.9,21.3-8.8l2.8-2.8C437.8,579.1,437.8,560,426,548.2z"/>
	<path class="st0" d="M99.4,221.6C53,175.2-16.3,195.4-19.2,196.3c-2.3,0.7-3.9,2.6-4.2,5c-0.3,2.4-6.7,60.7,60.9,128.3
		c16.5,16.5,43.7,43.7,72.4,72.4c1.7-3.7,4.3-6.8,7.4-9.4c-28.4-28.4-55.1-55.1-71.4-71.4c-53.7-53.7-57.8-100.8-57.7-114.5
		c3.2-0.7,8.1-1.7,14.2-2.4c1.8,15.2,10.5,66.2,49.8,105.5l73.6,73.6c2.8-2.9,5.7-5.6,8.7-8.1l-73.9-73.9c-36-36-44.5-83.7-46.3-98
		c22.5-0.8,53.3,3.4,76.6,26.7l96.5,96.5c2.9-2.8,5.8-5.5,8.9-7.9L99.4,221.6z"/>
</g>
<g id="Capa_2">
	<g>
		<path class="st0" d="M308.9,247.9c4.8,0,9.3-1.9,12.6-5.2c3.4-3.4,5.2-7.9,5.2-12.6c0-4.8-1.9-9.3-5.2-12.6
			c-3.4-3.4-7.9-5.2-12.6-5.2s-9.3,1.9-12.6,5.2c-3.4,3.4-5.2,7.9-5.2,12.6c0,4.8,1.9,9.3,5.2,12.6
			C299.6,246,304.1,247.9,308.9,247.9z M304.5,225.7c1.2-1.2,2.7-1.8,4.3-1.8s3.2,0.6,4.3,1.8c1.2,1.2,1.8,2.7,1.8,4.3
			c0,1.6-0.6,3.2-1.8,4.3s-2.7,1.8-4.3,1.8c-1.6,0-3.2-0.6-4.3-1.8c-1.2-1.2-1.8-2.7-1.8-4.3C302.7,228.4,303.4,226.8,304.5,225.7z"
			/>
		<path class="st0" d="M461.3,329.3l-127-127c-7-7-16.2-10.8-26.1-10.8c-11.3,0-21.8,5-28.8,13.8l-27.8,34.6
			C142.2,374.3-25.9,516.8-31.2,521.2c-19.8,15.1-23.7,43.5-8.7,63.4c8.6,11.4,21.8,18,36.2,18c7.6,0,15.1-1.9,21.7-5.6
			c0,0,0.1,0,0.1-0.1c6.9-3.9,10.1-12.1,7.6-19.6c-0.1-0.4-0.3-0.8-0.4-1.3c-2.8-10,0.6-20.7,8.8-27.2
			c32.1-25.6,60.5-51.3,88.8-80.7l99.7,99.7c2.1,2.1,5.4,2.3,7.7,0.5c81.6-63,155.5-135.9,219.7-216.7l11.6-14.7
			C463.6,334.7,463.4,331.4,461.3,329.3z M260.7,247.2l27.8-34.6c4.8-6,12-9.4,19.7-9.4c6.7,0,13,2.6,17.8,7.4l98.7,98.7l-8.4,10.6
			c-62.5,78.7-134.4,149.8-213.6,211.5l-108-108C148.1,372.2,210.5,308.9,260.7,247.2z M26.8,539.7C15,549.2,10,564.7,14.1,579.3
			c0.2,0.6,0.4,1.2,0.6,1.8c0.7,2.1-0.2,4.5-2.2,5.6c0,0,0,0,0,0c-4.9,2.7-10.5,4.1-16.1,4.1c-10.6,0-20.4-4.9-26.8-13.3
			c-11.2-14.8-8.2-35.9,6.5-47c0.1-0.1,0.2-0.1,0.2-0.2c0.8-0.7,40.7-34.3,94.2-84.3l29.1,29.1C76.5,498.1,52.9,519,26.8,539.7z
			 M107.9,466.8L79,438c2.3-2.2,4.7-4.4,7.1-6.7l28.5,28.5C112.4,462.2,110.1,464.5,107.9,466.8z M440.9,344.4
			c-62.5,78.7-134.3,149.8-213.6,211.5L211,539.6c79.5-62.1,151.7-133.6,214.5-212.6l7.6-9.5l16.3,16.3L440.9,344.4z"/>
	</g>
</g>
</svg>
