<?xml version="1.0" encoding="utf-8"?>
<!-- Generator: Adobe Illustrator 19.0.0, SVG Export Plug-In . SVG Version: 6.00 Build 0)  -->
<svg version="1.1"
	 id="Capa_1" xmlns:dc="http://purl.org/dc/elements/1.1/" xmlns:cc="http://creativecommons.org/ns#" xmlns:rdf="http://www.w3.org/1999/02/22-rdf-syntax-ns#" xmlns:svg="http://www.w3.org/2000/svg" xmlns:sodipodi="http://sodipodi.sourceforge.net/DTD/sodipodi-0.dtd" xmlns:inkscape="http://www.inkscape.org/namespaces/inkscape"
	 xmlns="http://www.w3.org/2000/svg" xmlns:xlink="http://www.w3.org/1999/xlink" x="0px" y="0px" viewBox="-281 367 48 49.5"
	 style="enable-background:new -281 367 48 49.5;" xml:space="preserve">
<style type="text/css">
	.st0{fill:none;stroke:#FFFFFF;stroke-width:2;stroke-linecap:round;stroke-linejoin:round;}
	.st1{fill:#FFFFFF;}
	.st2{fill:none;stroke:#000000;stroke-width:2;stroke-linecap:round;stroke-linejoin:round;}
</style>
<g transform="translate(0,-1004.3622)">
	<path class="st0" d="M-259.6,1393.7c0,0,1-4,0.2-5.8c-1.1-2.4-6.2-5-6.2-5s-0.9,4.2,0,6C-264.5,1391.2-259.6,1393.7-259.6,1393.7z"
		/>
	<path class="st0" d="M-256.6,1409.9c0,0-0.8-4.2,0-6c1.1-2.4,5.7-5,5.7-5s0.8,4.2,0,6C-251.9,1407.2-256.6,1409.9-256.6,1409.9z"/>
	<path class="st1" d="M-263.6,1394.9c-0.5,0-0.9,0.3-1,0.8c0,0-0.2,1.1-0.3,2.4c-0.1,0.8-0.1,1.6,0,2.4l2-2c0-0.1,0-0.1,0-0.2
		c0-0.4,0.1-0.4,0.1-0.8c0.2,0.1,0.4,0.2,0.5,0.3l1.4-1.4c-1.2-0.8-2.3-1.4-2.3-1.4C-263.3,1394.9-263.4,1394.9-263.6,1394.9
		L-263.6,1394.9z M-257.6,1398.8l-1.5,1.5c0.4,0.4,0.7,0.7,0.8,1c0.2,0.5,0.3,2,0.2,3.2c0,0.4-0.1,0.4-0.1,0.8
		c-0.5-0.3-0.6-0.3-1.3-0.8c-0.7-0.5-1.5-1.1-2.1-1.7l-1.4,1.4c0.7,0.7,1.6,1.3,2.4,1.9c1.5,1,2.8,1.7,2.8,1.7
		c0.5,0.3,1.1,0.1,1.3-0.4c0-0.1,0.1-0.2,0.1-0.3c0,0,0.2-1.1,0.3-2.4c0.1-1.3,0.2-2.9-0.4-4.2
		C-256.8,1399.9-257.2,1399.3-257.6,1398.8z"/>
	<path class="st1" d="M-251.9,1386.9c-0.1,0-0.3,0-0.4,0.1c0,0-1.3,0.7-2.8,1.7c-1.5,1-3.1,2.2-3.9,3.8c-0.4,0.8,0.4-1,0.1,1.9
		l7.4-7.4C-251.6,1386.9-251.8,1386.9-251.9,1386.9z M-250.5,1391.7l-8,8c0.3,0.2,0.6,0.2,0.9,0c0,0,1.3-0.7,2.8-1.7
		c1.5-1,3.1-2.2,3.9-3.8C-250.6,1393.5-250.5,1392.6-250.5,1391.7L-250.5,1391.7z"/>
	<path class="st0" d="M-257,1407.9l1,6.5"/>
	<path class="st0" d="M-258.6,1387.9c0,0-2-4.9-1.2-7.2c0.6-2,4.4-4.3,4.4-4.3s1.9,4.4,1.3,6.5
		C-254.7,1385-258.6,1387.9-258.6,1387.9z"/>
	<path class="st0" d="M-263,1380.3l-1-3"/>
	<path class="st0" d="M-250,1380.3l1-3"/>
	<path class="st2" d="M-273,1411.4l32-32"/>
	<circle class="st0" cx="-257" cy="1395.4" r="23"/>
	<path class="st0" d="M-273,1411.4l32-32"/>
</g>
</svg>
